<svg width="50" height="50" viewBox="0 0 50 50" fill="none" xmlns="http://www.w3.org/2000/svg">
<path d="M25 48.0737C22.8688 47.1462 5.79497 38.7337 5.62622 7.95875L25 1.90375L44.3738 7.95875C44.205 38.7037 27.1338 47.1412 25 48.0737Z" fill="#F8F8F8"/>
<path d="M25 2.56L43.745 8.4175C43.4225 37.405 27.805 46.0662 24.995 47.3887C22.1688 46.0863 6.575 37.5713 6.255 8.4175L25 2.56ZM25 1.25L5 7.5C5 41.4263 25 48.75 25 48.75C25 48.75 45 41.335 45 7.5L25 1.25Z" fill="#4788C7"/>
<path d="M36.25 23.75C36.25 30.0125 31.1475 35 25 35C18.8538 35 13.75 30.0125 13.75 23.75C13.75 17.4875 18.7375 12.5 25 12.5C31.2625 12.5 36.25 17.4875 36.25 23.75Z" fill="#F8F8F8"/>
<path d="M31.7337 31.9475C31.6437 31.6637 31.5525 31.365 31.4937 31.0662L31.4775 30.9862L31.44 30.91C31.215 30.4587 31.0987 29.9962 30.9762 29.505C30.9325 29.3687 30.9125 29.2612 30.8912 29.1462C30.8162 28.7737 30.7175 28.2725 30.365 27.875C30.1562 27.5425 29.8425 27.4325 29.65 27.3662C29.6 27.3487 29.5487 27.3325 29.4962 27.3062C29.0112 27.0962 28.5412 27.0787 28.1287 27.065C27.5087 27.0412 27.2362 27.0062 27.0437 26.735C26.9912 26.6562 26.9925 26.5437 27.015 26.2437C27.02 26.1662 27.025 26.0875 27.0287 26.0062C27.125 25.845 27.2062 25.685 27.2862 25.5237C27.3712 25.3537 27.455 25.185 27.5675 25.0162L27.6037 24.9612L27.6287 24.9012C27.7162 24.6775 27.8237 24.4725 27.9275 24.2712C28.1162 23.9025 28.3125 23.5225 28.4137 23.0712C28.5037 22.8387 28.5037 22.6062 28.5037 22.4312C28.5037 22.405 28.5037 22.375 28.505 22.3462C28.6062 22.2875 28.745 22.2175 28.8425 22.1687L28.9312 22.1237L29.0212 22.045C29.1512 21.9662 29.4637 21.775 29.4637 21.345C29.4637 21.22 29.4362 21.115 29.3975 21.0312C29.4025 21.025 29.4062 21.02 29.41 21.0162C29.7187 20.7075 30.0312 20.4275 30.3425 20.1475C30.6312 19.8862 30.9225 19.6262 31.2112 19.3425C31.3925 19.2562 31.5212 19.1025 31.5862 18.9287C31.7037 18.7262 31.7237 18.4875 31.6337 18.2687C31.5362 18.0325 31.32 17.8587 31.0675 17.8C30.9537 17.7487 30.86 17.7175 30.765 17.685C30.7612 17.6837 30.7575 17.6825 30.7525 17.6812L31.3725 16.75C31.4562 16.66 31.5425 16.55 31.6287 16.435C31.7212 16.3125 31.8937 16.0875 31.9762 16.055C32.09 16.0075 32.1475 15.995 32.21 15.995C32.2362 15.995 32.265 15.9975 32.2937 16.0025C34.4425 18.025 35.625 20.77 35.625 23.75C35.625 26.96 34.2137 29.9187 31.7337 31.9475Z" fill="#4788C7"/>
<path d="M32.1675 16.7562C33.9987 18.6262 35 21.0875 35 23.75C35 26.4475 33.94 28.9562 32.0775 30.8025L32.0725 30.78L31.9975 30.63C31.8012 30.2375 31.6937 29.8075 31.5812 29.3537L31.5675 29.3025L31.5525 29.2587C31.53 29.1912 31.5175 29.1087 31.5012 29.0237C31.42 28.6137 31.3 28.0112 30.8612 27.4975C30.5375 27.015 30.0675 26.8512 29.8537 26.7762C29.8262 26.7662 29.7975 26.7587 29.7737 26.7475L29.7425 26.7312L29.71 26.7175C29.1487 26.4762 28.5937 26.4562 28.1487 26.44C27.9787 26.4337 27.7362 26.425 27.6237 26.4125C27.6262 26.3725 27.6312 26.3312 27.6337 26.2875C27.6362 26.255 27.6387 26.2225 27.64 26.19C27.7162 26.0537 27.7812 25.9237 27.8412 25.8025C27.9137 25.6562 27.985 25.5087 28.0825 25.3625L28.155 25.2537L28.2037 25.1325C28.285 24.93 28.3825 24.7425 28.4775 24.5587C28.67 24.1837 28.8875 23.7612 29.0087 23.2487C29.075 23.0625 29.1037 22.8825 29.1162 22.7275C29.1237 22.7237 29.1312 22.72 29.1387 22.7162L29.3175 22.6262L29.4062 22.5375C29.9937 22.1575 30.0825 21.6287 30.0825 21.3437C30.0825 21.3087 30.0812 21.2712 30.0775 21.2325C30.3037 21.0175 30.5287 20.815 30.7537 20.6112C31.0337 20.36 31.3137 20.1075 31.5937 19.8362C31.8412 19.685 32.0362 19.4587 32.1487 19.1887C32.335 18.8312 32.3612 18.4087 32.2037 18.0287C32.0975 17.77 31.9125 17.5525 31.6837 17.4L31.8612 17.1325C31.945 17.0375 32.0312 16.9275 32.1187 16.8137C32.1362 16.7975 32.1525 16.7775 32.1675 16.7562ZM32.2062 15.3712C32.0625 15.3712 31.9187 15.4 31.7762 15.4637C31.3925 15.5925 31.1375 16.1037 30.8812 16.3587C30.625 16.7425 30.37 17.1262 30.1137 17.5087C29.985 17.6362 29.8575 17.8925 29.985 18.02C29.985 18.1475 30.1137 18.1475 30.2412 18.1475C30.4975 18.2762 30.625 18.2762 30.8812 18.4037C31.0087 18.4037 31.1375 18.5325 31.0087 18.6587C31.0087 18.6587 31.0087 18.7875 30.8812 18.7875C30.2412 19.4262 29.6025 19.9375 28.9637 20.5762C28.8362 20.7037 28.7075 20.96 28.7075 21.0875C28.7075 21.215 28.835 21.215 28.835 21.3425C28.835 21.4712 28.7075 21.4712 28.58 21.5987C28.3237 21.7275 28.0687 21.855 27.9412 21.9825C27.8137 22.2387 27.9412 22.6212 27.8137 22.8775C27.6862 23.5162 27.3012 24.0275 27.0462 24.6675C26.79 25.05 26.6637 25.435 26.4075 25.8175C26.4075 26.3287 26.2787 26.7125 26.535 27.0962C27.175 27.9912 28.325 27.48 29.22 27.8637C29.4762 27.9912 29.7312 27.9912 29.86 28.2462C30.2425 28.63 30.2425 29.27 30.3712 29.6525C30.4987 30.1637 30.6275 30.675 30.8825 31.1862C31.01 31.8262 31.2662 32.465 31.3937 32.9762C31.4775 32.9112 31.575 32.85 31.6675 32.7875C34.4312 30.75 36.25 27.4812 36.25 23.75C36.25 20.4362 34.845 17.4887 32.6012 15.4387C32.4712 15.3962 32.3387 15.3712 32.2062 15.3712Z" fill="#4788C7"/>
<path d="M25.3801 17.0575C25.3701 16.8837 25.3701 16.7037 25.3701 16.615C25.3701 16.4325 25.4239 16.2638 25.4864 16.0675C25.5889 15.7463 25.7176 15.3475 25.6138 14.83C25.6263 14.8163 25.4926 13.7238 25.4926 13.7238L25.4401 13.2963L25.0226 13.195C24.9064 13.1662 24.7901 13.1475 24.6801 13.1313C24.7851 13.1275 24.8926 13.125 25.0001 13.125C26.1551 13.125 27.2876 13.3075 28.3714 13.665C28.3276 13.795 28.2414 13.9925 28.0851 14.29L28.0189 14.42C27.8614 14.875 27.6564 15.2 27.4651 15.3287L27.4139 15.3625L27.3626 15.4138C27.1276 15.6488 26.7714 16.005 26.4439 16.2213C26.2339 16.3613 26.0238 16.535 25.8138 16.71C25.6688 16.8312 25.5239 16.9537 25.3801 17.0575Z" fill="#4788C7"/>
<path d="M26.1325 13.8125C26.595 13.8638 27.0513 13.9475 27.5 14.0612L27.4613 14.1363L27.4213 14.2163L27.3925 14.3012C27.295 14.595 27.16 14.7737 27.1188 14.8075L27.015 14.8763L26.9275 14.9637C26.7463 15.145 26.4888 15.4012 26.2463 15.5912C26.28 15.36 26.2888 15.0975 26.2413 14.8038C26.2325 14.6663 26.205 14.395 26.1325 13.8125ZM25 12.5C24.7688 12.5 24.54 12.5113 24.3125 12.525C24.1525 12.7738 24.025 13.0175 23.9775 13.1625C23.85 13.8012 24.3613 13.6738 24.8725 13.8013C24.8725 13.8013 25 14.8238 25 14.9513C25.1275 15.5913 24.7438 15.9737 24.7438 16.6125C24.7438 16.9963 24.7438 17.635 25 17.8912H25.1275C25.255 17.8912 25.3838 17.7637 25.6388 17.635C26.0225 17.3787 26.4063 16.9963 26.7888 16.74C27.1725 16.4838 27.5563 16.1012 27.8125 15.845C28.1963 15.5887 28.4513 15.0775 28.58 14.6938C28.7075 14.4375 29.1463 13.685 29.0175 13.3012C29.0075 13.2812 28.9938 13.2463 28.9813 13.2138C27.7463 12.755 26.4063 12.5 25 12.5Z" fill="#4788C7"/>
<path d="M21.6188 33.8125C21.0875 33.6325 20.5775 33.4175 20.095 33.1663C20.0838 33.08 20.0712 32.9837 20.0575 32.8875C20.0312 32.705 20.0038 32.5237 20 32.4475L19.995 32.3662L19.9688 32.2675C19.9063 32.0837 19.845 31.8675 19.785 31.6525C19.7188 31.4187 19.6525 31.1875 19.5863 30.9887C19.4875 30.74 19.3763 30.5262 19.2625 30.3087C19.0513 29.9037 18.8513 29.5212 18.8513 29.1412C18.8513 29.0212 18.8563 28.9025 18.8612 28.7825C18.8763 28.405 18.8925 27.9962 18.7763 27.5925H20.685C20.7588 27.615 20.8362 27.6375 20.9175 27.6612C21.08 27.7087 21.39 27.7975 21.5462 27.8762C21.5588 27.9175 21.5713 27.9637 21.5825 28.015C21.6188 28.1587 21.6625 28.3375 21.7587 28.5262L21.8038 28.6162L21.8763 28.6887C22.4625 29.2762 23.1275 29.4375 23.7138 29.5775C23.905 29.6237 24.1 29.67 24.2937 29.735C24.25 29.7387 24.2625 29.7887 24.2812 29.85C24.3363 30.015 24.2763 30.3475 24.1888 30.525L24.0888 30.8112C24.0125 31.0487 23.9 31.4075 23.7938 31.515C23.6113 31.6975 23.4263 31.79 23.1938 31.9062C22.8088 32.1562 22.59 32.4462 22.3762 32.7262C22.2612 32.8787 22.1425 33.0375 22.005 33.175L21.8225 33.3575V33.5012C21.7725 33.5837 21.6938 33.7062 21.6188 33.8125ZM15.5537 25.2463C15.1187 24.8488 14.7675 24.4112 14.565 24.005C14.4988 23.8937 14.4363 23.7975 14.375 23.7062C14.3863 20.82 15.51 18.1437 17.5462 16.1487C18.5625 15.8187 19.6463 15.6162 20.4025 15.6162C20.7113 15.6162 20.89 15.65 20.985 15.6787C21.2313 15.7612 21.5363 15.9525 21.745 16.1612C21.8113 16.2275 21.95 16.3662 22.0575 16.5C21.89 16.4962 21.7388 16.4875 21.6413 16.465L21.1175 15.9412L20.9788 15.895C20.8613 15.8562 20.74 15.8362 20.6137 15.8362C19.4212 15.8362 18.275 17.67 18.1288 18.2537C18.0025 18.6325 17.985 19.3137 18.2738 19.8125C18.4638 20.14 18.7587 20.3525 19.1238 20.425C19.135 20.425 19.145 20.425 19.155 20.425C19.72 20.425 20.15 20.1 20.7475 19.6087C20.8925 19.4875 21.0263 19.3775 21.1288 19.31C21.2163 19.2712 21.3325 19.1937 21.45 19.1175C21.4938 19.0887 21.5375 19.0575 21.5862 19.0287C22.2462 19.0712 22.6988 19.6587 22.8638 20.24L22.87 20.4075C22.7087 20.745 21.9563 21.1875 20.99 21.5137C20.9275 21.485 20.8113 21.4525 20.6713 21.4525C20.525 21.4525 20.3825 21.4862 20.2463 21.555C19.4088 21.8862 18.4938 22.87 18.4938 23.9037C18.4938 23.9037 18.4925 23.9062 18.4925 23.9088C18.4763 23.8988 18.46 23.89 18.4425 23.8825C18.2713 23.7312 18.1188 23.6625 17.84 23.6625C17.805 23.66 17.6988 23.6212 17.6275 23.5937C17.4525 23.5275 17.235 23.4462 16.9763 23.4462C16.7475 23.4462 16.5338 23.5112 16.3425 23.6387C16.0388 23.925 15.5525 24.4837 15.5525 25.1812C15.5538 25.1987 15.5537 25.2212 15.5537 25.2463Z" fill="#4788C7"/>
<path d="M18.3975 16.5512C17.9613 17.0962 17.66 17.675 17.55 18.0087C17.3612 18.5775 17.3437 19.4525 17.7325 20.1225C18.0125 20.6037 18.4625 20.9288 19.0013 21.0363L19.1225 21.06H19.2463C19.9613 21.06 20.5613 20.5675 21.1413 20.0912C21.2488 20.0025 21.3475 19.9187 21.4287 19.8587C21.545 19.7962 21.6425 19.7337 21.7375 19.6712C21.905 19.7488 22.0863 19.9675 22.1988 20.23C21.9963 20.3937 21.5738 20.6325 20.9725 20.8512C20.885 20.835 20.7825 20.8225 20.67 20.8225C20.4462 20.8225 20.2288 20.87 20.0213 20.9637C19.2038 21.3037 18.355 22.0837 18.0175 23.04C17.9875 23.0375 17.9563 23.035 17.925 23.0337C17.8988 23.025 17.8725 23.0138 17.845 23.0037C17.6463 22.9287 17.345 22.8163 16.975 22.8163C16.625 22.8163 16.2863 22.9187 15.9938 23.1137L15.8913 23.1825L15.8037 23.27C15.6462 23.4275 15.4388 23.6663 15.2638 23.9712C15.2088 23.8875 15.1612 23.805 15.12 23.7238L15.0988 23.6812L15.0738 23.64C15.05 23.6 15.025 23.56 14.9987 23.5188C15.055 20.9238 16.07 18.5187 17.875 16.6975C18.05 16.6462 18.2238 16.5962 18.3975 16.5512ZM20.5925 28.2188C20.6413 28.2325 20.6913 28.2475 20.7413 28.2625C20.8163 28.2838 20.9225 28.315 21.0212 28.3463C21.06 28.4813 21.1125 28.6375 21.1963 28.8063L21.2862 28.9875L21.43 29.1313C22.1412 29.8438 22.9288 30.0338 23.5625 30.1863C23.5888 30.1925 23.615 30.1987 23.6413 30.205C23.6363 30.22 23.6312 30.2338 23.6262 30.2438L23.5862 30.3238L23.5575 30.4088L23.4888 30.6225C23.4425 30.7675 23.3687 31.0025 23.3162 31.1013C23.2175 31.1913 23.1075 31.2488 22.9063 31.3488L22.8362 31.3838L22.7712 31.4275C22.37 31.695 22.105 32.0438 21.8725 32.3513C21.7612 32.4988 21.6562 32.6375 21.5587 32.7338L21.2725 33.02C21.0675 32.9375 20.8662 32.85 20.67 32.755C20.6512 32.625 20.6337 32.5013 20.625 32.425V32.2625L20.5612 32.07C20.5025 31.8938 20.4438 31.6875 20.385 31.4813C20.3163 31.24 20.2463 30.9988 20.1775 30.7925L20.1662 30.7575L20.1525 30.7225C20.0587 30.4887 19.9388 30.255 19.815 30.0175C19.64 29.6838 19.475 29.3675 19.475 29.1425C19.475 29.03 19.48 28.9187 19.4837 28.8075C19.4913 28.6287 19.4988 28.43 19.4913 28.2188H20.5925ZM20.4025 14.9912C19.5063 14.9912 18.27 15.2437 17.2137 15.6C15.0762 17.6425 13.75 20.525 13.75 23.75C13.75 23.8038 13.755 23.8562 13.7563 23.91C13.8475 24.0388 13.935 24.1663 14.0062 24.2837C14.39 25.0513 15.1563 25.8187 15.9238 26.3287C16.435 26.7125 17.4575 26.7125 17.9688 27.3513C18.3525 27.8638 18.225 28.5013 18.225 29.1412C18.225 29.9088 18.7363 30.5475 18.9925 31.1863C19.12 31.57 19.2488 32.0813 19.3763 32.465C19.3763 32.5925 19.5037 33.36 19.5037 33.4875C19.545 33.5075 19.5788 33.555 19.6088 33.6125C20.2913 33.9862 21.0175 34.2875 21.7738 34.515C21.7825 34.515 21.7937 34.51 21.8013 34.51H21.805C21.9325 34.51 22.4438 33.7425 22.4438 33.615C22.8275 33.2313 23.0825 32.72 23.4663 32.465C23.7225 32.3375 23.9775 32.2088 24.2337 31.9525C24.49 31.6963 24.6175 31.185 24.745 30.8025C24.8725 30.5475 25.0013 30.0363 24.8725 29.6525C24.7913 29.41 24.745 29.2688 24.4887 29.1412C23.7212 28.885 22.955 28.885 22.315 28.2463C22.1875 27.99 22.1875 27.735 22.0587 27.4788C21.8025 27.2225 21.1638 27.095 20.78 26.9675H19.1175H18.225C17.8412 26.84 17.5863 26.3288 17.33 25.945C17.33 25.8175 17.33 25.5612 17.0738 25.5612C17.02 25.535 16.9662 25.525 16.9125 25.525C16.765 25.525 16.6175 25.5988 16.47 25.5988C16.4162 25.5988 16.3612 25.5887 16.3075 25.5612C16.18 25.4337 16.18 25.305 16.18 25.1788C16.18 24.795 16.4362 24.4112 16.6912 24.155C16.7875 24.0912 16.8825 24.0675 16.9788 24.0675C17.2663 24.0675 17.5537 24.2837 17.8412 24.2837C17.9687 24.2837 17.9687 24.2837 18.0975 24.4112C18.4812 24.5387 18.6088 25.05 18.6088 25.435V25.6912C18.6088 25.8187 18.7362 25.8188 18.8637 25.8188C18.9912 25.18 18.9912 24.54 19.12 23.9012C19.12 23.1337 19.8875 22.3662 20.5262 22.1112C20.58 22.085 20.6288 22.075 20.6725 22.075C20.795 22.075 20.8937 22.1487 21.0175 22.1487C21.0625 22.1487 21.1112 22.1387 21.165 22.1112C21.9325 21.855 23.85 21.0887 23.4663 20.0662C23.2275 19.2287 22.54 18.3925 21.615 18.3925C21.5512 18.3925 21.4862 18.3962 21.4212 18.405C21.165 18.5337 21.0375 18.6612 20.7825 18.7887C20.3987 19.045 19.6325 19.8112 19.2488 19.8112C18.61 19.6837 18.61 18.7887 18.7375 18.405C18.8562 17.93 19.8588 16.4612 20.615 16.4612C20.6725 16.4612 20.7287 16.47 20.7825 16.4875C20.91 16.615 21.1662 16.8712 21.2937 16.9987C21.55 17.1262 21.9325 17.1262 22.3163 17.1262C22.4438 17.1262 22.5725 17.1262 22.7 16.9987C22.8275 16.8712 22.8275 16.8712 22.8275 16.7425C22.8275 16.3587 22.4437 15.975 22.1887 15.7187C21.9325 15.4625 21.55 15.2075 21.1663 15.08C20.9613 15.02 20.7013 14.9912 20.4025 14.9912Z" fill="#4788C7"/>
<path d="M25 13.75C30.6075 13.75 35 18.1425 35 23.75C35 29.2638 30.5138 33.75 25 33.75C19.4863 33.75 15 29.2638 15 23.75C15 18.1425 19.3925 13.75 25 13.75ZM25 12.5C18.7375 12.5 13.75 17.4875 13.75 23.75C13.75 30.0125 18.8538 35 25 35C31.1475 35 36.25 30.0125 36.25 23.75C36.25 17.4875 31.2625 12.5 25 12.5Z" fill="#4788C7"/>
</svg>
